:SAMPLES-PER-SECOND 30
:FULLY-SPECIFIED
:DEGREES
245
root  7.84368 18.1342 -59.713 -121.881 4.56519 -177.411
RightUpLeg  -62.6999 1.08945 13.9097
RightLeg  111.072 23.8433 -17.7417
RightFoot  -1.94246 0.306621 -3.18522
RightToes  -5.82073e-011 -3.18055e-015 -2.98177e-016
Spine  33.186 -2.34362 7.61671
Spine1  -6.81093 0.436664 -10.164
HEad  -15.9243 0.253753 -0.212186
LeftShoulder1  -3.88251e-019 9.70628e-020 -3.87848e-018
LeftArm  -1.89107 -27.6787 -66.8912
LeftForeArm  19.9988 -1.4776 -6.6124
LeftHand  -11.8585 -10.96 74.353
RightShoulder  2.74312 8.28169 12.222
RightArm  0.138999 18.4876 70.772
RightForeArm  4.06094 7.79437 -8.15372
RightHand  -10.9887 9.7615 -72.4678
LeftUpLeg  -61.553 6.36708 -7.59046
LeftLeg  114.84 -20.2507 13.3664
LeftFoot  -18.4907 -0.549713 -10.5777
LeftToes  -3.44176e-011 4.05998e-011 -5.21293e-012
246
root  7.75076 18.1509 -59.7633 -121.655 4.77167 -177.417
RightUpLeg  -62.9121 0.92126 13.3952
RightLeg  111.108 23.6712 -17.3928
RightFoot  -1.86154 0.316524 -3.30144
RightToes  -5.82073e-011 -3.18055e-015 -2.98177e-016
Spine  33.1199 -2.5349 7.87486
Spine1  -7.05735 0.25486 -10.0182
HEad  -15.9132 0.1527 0.122455
LeftShoulder1  -3.88251e-019 9.70628e-020 -3.87848e-018
LeftArm  -2.24788 -26.9781 -66.5114
LeftForeArm  19.6121 -1.47789 -6.64772
LeftHand  -11.8792 -10.8991 74.662
RightShoulder  2.64039 8.16115 11.7201
RightArm  0.620247 18.9571 71.5793
RightForeArm  4.30712 7.01446 -7.71902
RightHand  -11.0226 9.79123 -72.5302
LeftUpLeg  -61.508 6.41485 -8.3492
LeftLeg  114.056 -20.4623 14.1397
LeftFoot  -18.4251 -0.584791 -11.4516
LeftToes  -3.44176e-011 4.05998e-011 -5.21293e-012
247
root  7.66489 18.1586 -59.8148 -121.626 4.88811 -177.726
RightUpLeg  -62.9266 0.566342 12.6782
RightLeg  111.302 23.4473 -16.8425
RightFoot  -1.9187 0.304497 -3.18871
RightToes  -5.82073e-011 -3.18055e-015 -2.98177e-016
Spine  33.1552 -2.76901 7.96198
Spine1  -7.19492 -0.023716 -9.70032
HEad  -15.9005 0.059473 0.490007
LeftShoulder1  -3.88251e-019 9.70628e-020 -3.87848e-018
LeftArm  -2.44416 -26.5537 -66.4358
LeftForeArm  19.2986 -1.46033 -6.58146
LeftHand  -11.8461 -10.8337 74.7365
RightShoulder  2.58044 8.07451 11.4462
RightArm  1.13627 19.4281 72.0529
RightForeArm  4.43875 6.39747 -7.28266
RightHand  -11.0702 9.87299 -72.4738
LeftUpLeg  -61.487 5.93318 -9.10747
LeftLeg  113.601 -20.7238 14.8548
LeftFoot  -18.2087 -0.579201 -11.8174
LeftToes  -3.44176e-011 4.05998e-011 -5.21293e-012
248
root  7.58447 18.1561 -59.858 -121.722 5.05299 -177.846
RightUpLeg  -62.8059 0.397536 12.0252
RightLeg  111.56 23.2119 -16.2335
RightFoot  -1.9715 0.288715 -3.03425
RightToes  -5.82073e-011 -3.18055e-015 -2.98177e-016
Spine  33.2773 -2.81234 7.98542
Spine1  -7.25332 -0.109427 -9.29649
HEad  -15.8719 -0.0995989 0.658744
LeftShoulder1  -3.88251e-019 9.70628e-020 -3.87848e-018
LeftArm  -2.59158 -26.139 -66.5649
LeftForeArm  18.9663 -1.43998 -6.50164
LeftHand  -11.8626 -10.8284 74.8323
RightShoulder  2.58676 8.05977 11.5084
RightArm  1.52057 19.8125 72.1545
RightForeArm  4.80978 6.09021 -7.02959
RightHand  -11.1158 9.94876 -72.43
LeftUpLeg  -61.5328 5.59346 -9.69129
LeftLeg  113.532 -21.0299 15.4438
LeftFoot  -17.8908 -0.538707 -11.661
LeftToes  -3.44176e-011 4.05998e-011 -5.21293e-012
249
root  7.50442 18.1505 -59.8902 -121.923 5.28751 -177.704
RightUpLeg  -62.5452 0.410162 11.5268
RightLeg  111.776 23.005 -15.7095
RightFoot  -1.99299 0.293176 -3.08502
RightToes  -5.82073e-011 -3.18055e-015 -2.98177e-016
Spine  33.466 -2.69951 7.99792
Spine1  -7.15555 0.00162239 -8.91707
HEad  -15.8288 -0.225169 0.630891
LeftShoulder1  -3.88251e-019 9.70628e-020 -3.87848e-018
LeftArm  -2.46608 -25.6994 -66.5871
LeftForeArm  18.2435 -1.46188 -6.67811
LeftHand  -11.9534 -10.8549 75.1641
RightShoulder  2.61007 8.06294 11.6582
RightArm  1.71081 20.1134 72.1321
RightForeArm  5.29592 6.05991 -7.02087
RightHand  -11.1013 9.94053 -72.3874
LeftUpLeg  -61.5885 5.60426 -10.0518
LeftLeg  113.811 -21.2101 15.605
LeftFoot  -17.3706 -0.481633 -11.6024
LeftToes  -3.44176e-011 4.05998e-011 -5.21293e-012
250
root  7.42529 18.1442 -59.9159 -122.159 5.45795 -177.539
RightUpLeg  -62.2127 0.380791 11.2181
RightLeg  111.842 22.9107 -15.4911
RightFoot  -2.04484 0.304772 -3.20652
RightToes  -5.82073e-011 -3.18055e-015 -2.98177e-016
Spine  33.5899 -2.62584 8.06255
Spine1  -6.85599 0.110388 -8.62393
HEad  -15.7991 -0.172771 0.615365
LeftShoulder1  -3.88251e-019 9.70628e-020 -3.87848e-018
LeftArm  -2.05371 -25.4071 -66.417
LeftForeArm  17.255 -1.52077 -7.07148
LeftHand  -12.0419 -10.8651 75.5402
RightShoulder  2.60919 8.04457 11.6783
RightArm  1.96916 20.5087 72.1417
RightForeArm  5.50438 5.98206 -6.95235
RightHand  -11.0469 9.88099 -72.3295
LeftUpLeg  -61.6326 5.66608 -10.2627
LeftLeg  114.228 -21.2462 15.4305
LeftFoot  -16.669 -0.410809 -11.67
LeftToes  -3.44176e-011 4.05998e-011 -5.21293e-012
251
root  7.35564 18.1344 -59.9385 -122.274 5.46971 -177.447
RightUpLeg  -62.0136 0.247062 11.1652
RightLeg  111.727 22.9779 -15.6876
RightFoot  -2.09188 0.290755 -3.0622
RightToes  -5.82073e-011 -3.18055e-015 -2.98177e-016
Spine  33.5785 -2.65175 8.23382
Spine1  -6.58305 0.124021 -8.4091
HEad  -15.8083 0.0116804 0.701877
LeftShoulder1  -3.88251e-019 9.70628e-020 -3.87848e-018
LeftArm  -1.78478 -25.2833 -66.2665
LeftForeArm  16.6159 -1.55923 -7.32658
LeftHand  -12.0786 -10.8724 75.6838
RightShoulder  2.60153 8.03262 11.6444
RightArm  2.39654 21.0314 72.1655
RightForeArm  5.50498 5.65179 -6.66694
RightHand  -11.0283 9.86039 -72.3109
LeftUpLeg  -61.7221 5.58764 -10.3752
LeftLeg  114.506 -21.2856 15.343
LeftFoot  -16.0393 -0.336689 -11.3627
LeftToes  -3.44176e-011 4.05998e-011 -5.21293e-012
252
root  7.30075 18.1264 -59.9587 -122.253 5.39127 -177.407
RightUpLeg  -62.0042 0.0664242 11.2639
RightLeg  111.522 23.129 -16.099
RightFoot  -2.07029 0.24761 -2.61635
RightToes  -5.82073e-011 -3.18055e-015 -2.98177e-016
Spine  33.534 -2.72462 8.45194
Spine1  -6.52355 0.0810313 -8.28263
HEad  -15.8388 0.15777 0.829028
LeftShoulder1  -3.88251e-019 9.70628e-020 -3.87848e-018
LeftArm  -1.83211 -25.2221 -66.2641
LeftForeArm  16.4911 -1.55826 -7.3309
LeftHand  -12.0987 -10.9076 75.6534
RightShoulder  2.61755 8.05511 11.7187
RightArm  2.76013 21.4561 72.1392
RightForeArm  5.60281 5.31711 -6.3924
RightHand  -11.0546 9.88788 -72.3434
LeftUpLeg  -61.7842 5.43221 -10.4109
LeftLeg  114.546 -21.3532 15.4378
LeftFoot  -15.8133 -0.30165 -10.8796
LeftToes  -3.44176e-011 4.05998e-011 -5.21293e-012
253
root  7.25432 18.1297 -59.9744 -122.253 5.3589 -177.448
RightUpLeg  -62.0181 -0.143569 11.244
RightLeg  111.376 23.2289 -16.3799
RightFoot  -2.02675 0.208748 -2.21283
RightToes  -5.82073e-011 -3.18055e-015 -2.98177e-016
Spine  33.5503 -2.82008 8.59533
Spine1  -6.51867 0.0249355 -8.29964
HEad  -15.865 0.212186 0.946743
LeftShoulder1  -3.88251e-019 9.70628e-020 -3.87848e-018
LeftArm  -1.84894 -25.2055 -66.3075
LeftForeArm  16.4182 -1.55654 -7.32728
LeftHand  -12.1415 -10.9571 75.6769
RightShoulder  2.65843 8.09481 11.9326
RightArm  2.95854 21.6815 72.0042
RightForeArm  5.74084 5.26758 -6.28258
RightHand  -11.0633 9.89872 -72.348
LeftUpLeg  -61.6636 5.25065 -10.4269
LeftLeg  114.466 -21.3183 15.4223
LeftFoot  -16.0458 -0.328492 -11.0171
LeftToes  -3.44176e-011 4.05998e-011 -5.21293e-012
254
root  7.20874 18.1405 -59.9821 -122.294 5.42914 -177.572
RightUpLeg  -62.0201 -0.350915 11.0016
RightLeg  111.357 23.2312 -16.3964
RightFoot  -2.02396 0.200076 -2.1178
RightToes  -5.82073e-011 -3.18055e-015 -2.98177e-016
Spine  33.5634 -2.91392 8.6293
Spine1  -6.43012 -0.0192799 -8.45133
HEad  -15.8894 0.260086 1.00307
LeftShoulder1  -3.88251e-019 9.70628e-020 -3.87848e-018
LeftArm  -1.65738 -25.211 -66.3269
LeftForeArm  16.1859 -1.5734 -7.43494
LeftHand  -12.1844 -10.9845 75.7784
RightShoulder  2.69807 8.11558 12.1642
RightArm  3.1646 21.8588 71.7766
RightForeArm  5.66573 5.35613 -6.17177
RightHand  -11.0293 9.86721 -72.2912
LeftUpLeg  -61.443 5.03069 -10.4831
LeftLeg  114.408 -21.1313 15.1303
LeftFoot  -16.4518 -0.393405 -11.854
LeftToes  -3.44176e-011 4.05998e-011 -5.21293e-012
255
root  7.1663 18.1464 -59.9817 -122.214 5.54654 -177.691
RightUpLeg  -62.1781 -0.484093 10.703
RightLeg  111.417 23.1933 -16.287
RightFoot  -2.02706 0.208021 -2.19197
RightToes  -5.82073e-011 -3.18055e-015 -2.98177e-016
Spine  33.498 -2.95291 8.60908
Spine1  -6.4461 -0.0418254 -8.60081
HEad  -15.9068 0.338702 0.905369
LeftShoulder1  -3.88251e-019 9.70628e-020 -3.87848e-018
LeftArm  -1.54616 -25.1229 -66.3834
LeftForeArm  16.0949 -1.58228 -7.48923
LeftHand  -12.1946 -10.9831 75.8299
RightShoulder  2.70353 8.09272 12.2329
RightArm  3.40449 22.0383 71.6096
RightForeArm  5.43978 5.27285 -5.95827
RightHand  -10.9982 9.83264 -72.26
LeftUpLeg  -61.3823 4.80549 -10.5725
LeftLeg  114.402 -20.896 14.7231
LeftFoot  -16.759 -0.449854 -12.5923
LeftToes  -3.44176e-011 4.05998e-011 -5.21293e-012
256
root  7.13205 18.1448 -59.9765 -122.02 5.61452 -177.753
RightUpLeg  -62.4604 -0.554091 10.5143
RightLeg  111.488 23.167 -16.193
RightFoot  -2.00119 0.206782 -2.17062
RightToes  -5.82073e-011 -3.18055e-015 -2.98177e-016
Spine  33.4293 -2.94032 8.58251
Spine1  -6.6738 -0.0676742 -8.59671
HEad  -15.8907 0.373791 0.643234
LeftShoulder1  -3.88251e-019 9.70628e-020 -3.87848e-018
LeftArm  -1.68241 -24.9494 -66.4643
LeftForeArm  16.2432 -1.57363 -7.43183
LeftHand  -12.1954 -10.9859 75.8239
RightShoulder  2.6658 8.02511 12.0807
RightArm  3.48635 22.0928 71.6395
RightForeArm  5.3429 5.05099 -5.81627
RightHand  -11.0079 9.82778 -72.3254
LeftUpLeg  -61.4978 4.61523 -10.6386
LeftLeg  114.428 -20.7249 14.4094
LeftFoot  -16.929 -0.47322 -12.7116
LeftToes  -3.44176e-011 4.05998e-011 -5.21293e-012
